<svg id="Rock--Streamline-Openmoji" viewBox="0 0 72 72" xmlns="http://www.w3.org/2000/svg"><desc>Rock Streamline Emoji: https://streamlinehq.com</desc><g id="color"><path fill="#d0cfce" d="M55.785 34.99a0.9992 0.9992 0 0 1 0.1055 1.041l-3.8946 8.0626a1.0021 1.0021 0 0 1 -0.706 0.5468L40.492 46.7783a1.007 1.007 0 0 1 -0.7939 -0.1806L16.2137 29.02a1.0007 1.0007 0 0 1 -0.1758 -1.4316l2.4385 -2.9971a0.9981 0.9981 0 0 1 0.3252 -0.2627l18.3057 -9.2217a1.0147 1.0147 0 0 1 0.6572 -0.0849l3.8193 0.8066a0.9974 0.9974 0 0 1 0.6367 0.4424l2.6731 4.144 1.6213 2.4905Z" stroke-width="1"></path><path fill="#3f3f3f" d="m26.692 56 20.096 0 -6.471 -10.181 -23.374 -17.6 -1.129 4.827L26.692 56z" stroke-width="1"></path><path fill="#9b9b9a" d="m54.78 36.031 1.348 11.513L54.469 56l-7.681 0 -6.471 -10.181 10.622 -1.879 3.841 -7.909z" stroke-width="1"></path></g><g id="line"><path fill="none" stroke="#000000" stroke-linecap="round" stroke-linejoin="round" stroke-width="2" d="m45.797 23.608 9.193 11.989 1.138 11.642L54.469 56l-27.777 0L16 32.86l0.813 -4.641 2.439 -2.997L37.558 16l3.819 0.807 2.643 4.11 -5.012 3.353"></path><path fill="none" stroke="#000000" stroke-linecap="round" stroke-linejoin="round" stroke-width="2" d="m47.359 56 -7.061 -10.203 -23.485 -17.578"></path><path fill="none" stroke="#000000" stroke-linecap="round" stroke-linejoin="round" stroke-width="2" d="m54.99 35.597 -3.895 8.062 -10.797 2.138"></path></g></svg>